<svg width="104" height="60" viewBox="0 0 104 60" fill="none" xmlns="http://www.w3.org/2000/svg">
<path d="M20.36 40.56C16.12 40.56 12.9467 39.2 10.84 36.48C8.73333 33.7333 7.68 30.2133 7.68 25.92C7.68 21.6267 8.53333 18.1867 10.24 15.6C11.1467 14.24 12.4267 13.0933 14.08 12.16C16.6933 10.6933 19.2667 9.96 21.8 9.96C25.96 9.96 29.0533 11.1467 31.08 13.52C33.1333 15.8933 34.16 19.4 34.16 24.04C34.16 28.6533 33.2133 32.3467 31.32 35.12C30.04 36.9867 28.2933 38.36 26.08 39.24C23.8933 40.12 21.9867 40.56 20.36 40.56ZM11.76 24.84C11.76 27.5333 12.16 29.8933 12.96 31.92C13.3333 32.8 13.8933 33.7333 14.64 34.72C15.4133 35.7067 16.3733 36.4933 17.52 37.08C18.6667 37.64 20.2267 37.92 22.2 37.92C27.4267 37.92 30.04 33.9333 30.04 25.96C30.04 21.4533 29.3333 18.1733 27.92 16.12C26.5067 14.04 24.7067 12.84 22.52 12.52C22.28 12.4667 21.56 12.44 20.36 12.44C17.72 12.44 15.6267 13.4133 14.08 15.36C12.5333 17.3067 11.76 20.4667 11.76 24.84ZM36.9647 40V38.52C37.7647 38.4667 38.378 38.4 38.8047 38.32C39.258 38.24 39.658 38.0667 40.0047 37.8C40.378 37.5333 40.5647 37.16 40.5647 36.68C40.5647 27.4533 40.4714 19.7467 40.2847 13.56C40.258 12.9733 40.0447 12.5867 39.6447 12.4C39.2714 12.1867 38.5647 12.0533 37.5247 12L36.9647 11.96V10.48C38.4047 10.5867 40.2847 10.64 42.6047 10.64C44.9247 10.64 46.7647 10.5733 48.1247 10.44C49.4847 10.3067 50.298 10.24 50.5647 10.24H51.3647C52.7514 10.24 53.9647 10.4133 55.0047 10.76C56.0714 11.1067 56.8847 11.52 57.4447 12C58.0314 12.48 58.498 13.0533 58.8447 13.72C59.4047 14.7867 59.6847 16.0267 59.6847 17.44C59.6847 20.1333 58.2047 22.2 55.2447 23.64L54.0447 24.24C58.498 25.7333 60.7247 28.1467 60.7247 31.48C60.7247 33.8533 59.7514 35.9067 57.8047 37.64C55.858 39.3733 53.6447 40.24 51.1647 40.24H50.3247C49.5514 40.24 48.498 40.1867 47.1647 40.08L45.8847 40C44.4447 39.8933 42.9514 39.84 41.4047 39.84C39.8847 39.84 38.4047 39.8933 36.9647 40ZM44.4847 34.4C44.4847 35.8933 44.938 36.8267 45.8447 37.2C46.7514 37.5733 48.7114 37.76 51.7247 37.76C52.8447 37.76 53.9114 37.2 54.9247 36.08C55.9647 34.96 56.4847 33.44 56.4847 31.52C56.4847 29.5733 55.858 28.08 54.6047 27.04C53.3514 25.9733 51.6047 25.44 49.3647 25.44C47.1514 25.44 45.5514 25.52 44.5647 25.68C44.5114 28.72 44.4847 31.6267 44.4847 34.4ZM44.5647 23.76C46.298 23.6 47.6847 23.52 48.7247 23.52C49.7647 23.52 50.6047 23.5467 51.2447 23.6C52.6847 23.1733 53.7247 22.44 54.3647 21.4C55.0047 20.36 55.3247 19.2667 55.3247 18.12C55.3247 16.9467 55.1247 15.96 54.7247 15.16C54.3247 14.3333 53.858 13.7333 53.3247 13.36C52.2314 12.5867 51.418 12.2 50.8847 12.2C47.9514 12.2 46.058 12.36 45.2047 12.68L44.7247 13.12C44.6447 16.88 44.5914 20.4267 44.5647 23.76ZM62.9413 40V38.52C63.7413 38.4667 64.3546 38.4 64.7813 38.32C65.2346 38.24 65.6346 38.0667 65.9813 37.8C66.3546 37.5333 66.5413 37.16 66.5413 36.68C66.5413 27.4533 66.4479 19.7467 66.2613 13.56C66.2346 12.9733 66.0213 12.5867 65.6213 12.4C65.2479 12.1867 64.5413 12.0533 63.5013 12L62.9413 11.96V10.48C64.3813 10.5867 66.2613 10.64 68.5813 10.64C70.9013 10.64 72.7413 10.5733 74.1013 10.44C75.4613 10.3067 76.2746 10.24 76.5413 10.24H77.3413C78.7279 10.24 79.9413 10.4133 80.9813 10.76C82.0479 11.1067 82.8613 11.52 83.4213 12C84.0079 12.48 84.4746 13.0533 84.8213 13.72C85.3813 14.7867 85.6613 16.0267 85.6613 17.44C85.6613 20.1333 84.1813 22.2 81.2213 23.64L80.0213 24.24C84.4746 25.7333 86.7013 28.1467 86.7013 31.48C86.7013 33.8533 85.7279 35.9067 83.7813 37.64C81.8346 39.3733 79.6213 40.24 77.1413 40.24H76.3013C75.5279 40.24 74.4746 40.1867 73.1413 40.08L71.8613 40C70.4213 39.8933 68.9279 39.84 67.3813 39.84C65.8613 39.84 64.3813 39.8933 62.9413 40ZM70.4613 34.4C70.4613 35.8933 70.9146 36.8267 71.8213 37.2C72.7279 37.5733 74.6879 37.76 77.7013 37.76C78.8213 37.76 79.8879 37.2 80.9013 36.08C81.9413 34.96 82.4613 33.44 82.4613 31.52C82.4613 29.5733 81.8346 28.08 80.5813 27.04C79.3279 25.9733 77.5813 25.44 75.3413 25.44C73.1279 25.44 71.5279 25.52 70.5413 25.68C70.4879 28.72 70.4613 31.6267 70.4613 34.4ZM70.5413 23.76C72.2746 23.6 73.6613 23.52 74.7013 23.52C75.7413 23.52 76.5813 23.5467 77.2213 23.6C78.6613 23.1733 79.7013 22.44 80.3413 21.4C80.9813 20.36 81.3013 19.2667 81.3013 18.12C81.3013 16.9467 81.1013 15.96 80.7013 15.16C80.3013 14.3333 79.8346 13.7333 79.3013 13.36C78.2079 12.5867 77.3946 12.2 76.8613 12.2C73.9279 12.2 72.0346 12.36 71.1813 12.68L70.7013 13.12C70.6213 16.88 70.5679 20.4267 70.5413 23.76Z" fill="#E80202"/>
<path d="M8.42045 52.6364C8.42045 53.5568 8.25426 54.3523 7.92188 55.0227C7.58949 55.6932 7.13352 56.2102 6.55398 56.5739C5.97443 56.9375 5.3125 57.1193 4.56818 57.1193C3.82386 57.1193 3.16193 56.9375 2.58239 56.5739C2.00284 56.2102 1.54688 55.6932 1.21449 55.0227C0.882102 54.3523 0.715909 53.5568 0.715909 52.6364C0.715909 51.7159 0.882102 50.9205 1.21449 50.25C1.54688 49.5795 2.00284 49.0625 2.58239 48.6989C3.16193 48.3352 3.82386 48.1534 4.56818 48.1534C5.3125 48.1534 5.97443 48.3352 6.55398 48.6989C7.13352 49.0625 7.58949 49.5795 7.92188 50.25C8.25426 50.9205 8.42045 51.7159 8.42045 52.6364ZM7.39773 52.6364C7.39773 51.8807 7.27131 51.2429 7.01847 50.723C6.76847 50.2031 6.42898 49.8097 6 49.5426C5.57386 49.2756 5.09659 49.142 4.56818 49.142C4.03977 49.142 3.56108 49.2756 3.1321 49.5426C2.70597 49.8097 2.36648 50.2031 2.11364 50.723C1.86364 51.2429 1.73864 51.8807 1.73864 52.6364C1.73864 53.392 1.86364 54.0298 2.11364 54.5497C2.36648 55.0696 2.70597 55.4631 3.1321 55.7301C3.56108 55.9972 4.03977 56.1307 4.56818 56.1307C5.09659 56.1307 5.57386 55.9972 6 55.7301C6.42898 55.4631 6.76847 55.0696 7.01847 54.5497C7.27131 54.0298 7.39773 53.392 7.39773 52.6364ZM11.0668 53.0625V57H10.0611V50.4545H11.0327V51.4773H11.1179C11.2713 51.1449 11.5043 50.8778 11.8168 50.6761C12.1293 50.4716 12.5327 50.3693 13.027 50.3693C13.4702 50.3693 13.858 50.4602 14.1903 50.642C14.5227 50.821 14.7813 51.0938 14.9659 51.4602C15.1506 51.8239 15.2429 52.2841 15.2429 52.8409V57H14.2372V52.9091C14.2372 52.3949 14.1037 51.9943 13.8366 51.7074C13.5696 51.4176 13.2031 51.2727 12.7372 51.2727C12.4162 51.2727 12.1293 51.3423 11.8764 51.4815C11.6264 51.6207 11.429 51.8239 11.2841 52.0909C11.1392 52.358 11.0668 52.6818 11.0668 53.0625ZM18.0863 48.2727V57H17.0806V48.2727H18.0863ZM19.9283 57V50.4545H20.9339V57H19.9283ZM20.4396 49.3636C20.2436 49.3636 20.0746 49.2969 19.9325 49.1634C19.7933 49.0298 19.7237 48.8693 19.7237 48.6818C19.7237 48.4943 19.7933 48.3338 19.9325 48.2003C20.0746 48.0668 20.2436 48 20.4396 48C20.6357 48 20.8033 48.0668 20.9425 48.2003C21.0845 48.3338 21.1555 48.4943 21.1555 48.6818C21.1555 48.8693 21.0845 49.0298 20.9425 49.1634C20.8033 49.2969 20.6357 49.3636 20.4396 49.3636ZM23.7816 53.0625V57H22.7759V50.4545H23.7475V51.4773H23.8327C23.9862 51.1449 24.2191 50.8778 24.5316 50.6761C24.8441 50.4716 25.2475 50.3693 25.7418 50.3693C26.185 50.3693 26.5728 50.4602 26.9052 50.642C27.2376 50.821 27.4961 51.0938 27.6808 51.4602C27.8654 51.8239 27.9577 52.2841 27.9577 52.8409V57H26.9521V52.9091C26.9521 52.3949 26.8185 51.9943 26.5515 51.7074C26.2844 51.4176 25.918 51.2727 25.4521 51.2727C25.131 51.2727 24.8441 51.3423 24.5913 51.4815C24.3413 51.6207 24.1438 51.8239 23.9989 52.0909C23.854 52.358 23.7816 52.6818 23.7816 53.0625ZM32.5398 57.1364C31.9091 57.1364 31.3651 56.9972 30.9077 56.7188C30.4531 56.4375 30.1023 56.0455 29.8551 55.5426C29.6108 55.0369 29.4886 54.4489 29.4886 53.7784C29.4886 53.108 29.6108 52.517 29.8551 52.0057C30.1023 51.4915 30.446 51.0909 30.8864 50.804C31.3295 50.5142 31.8466 50.3693 32.4375 50.3693C32.7784 50.3693 33.1151 50.4261 33.4474 50.5398C33.7798 50.6534 34.0824 50.8381 34.3551 51.0938C34.6278 51.3466 34.8452 51.6818 35.0071 52.0994C35.169 52.517 35.25 53.0312 35.25 53.642V54.0682H30.2045V53.1989H34.2273C34.2273 52.8295 34.1534 52.5 34.0057 52.2102C33.8608 51.9205 33.6534 51.6918 33.3835 51.5241C33.1165 51.3565 32.8011 51.2727 32.4375 51.2727C32.0369 51.2727 31.6903 51.3722 31.3977 51.571C31.108 51.767 30.8849 52.0227 30.7287 52.3381C30.5724 52.6534 30.4943 52.9915 30.4943 53.3523V53.9318C30.4943 54.4261 30.5795 54.8452 30.75 55.1889C30.9233 55.5298 31.1634 55.7898 31.4702 55.9688C31.777 56.1449 32.1335 56.233 32.5398 56.233C32.804 56.233 33.0426 56.196 33.2557 56.1222C33.4716 56.0455 33.6577 55.9318 33.8139 55.7812C33.9702 55.6278 34.0909 55.4375 34.1761 55.2102L35.1477 55.483C35.0455 55.8125 34.8736 56.1023 34.6321 56.3523C34.3906 56.5994 34.0923 56.7926 33.7372 56.9318C33.3821 57.0682 32.983 57.1364 32.5398 57.1364ZM40.2912 57V48.2727H43.3423C43.9503 48.2727 44.4517 48.3778 44.8466 48.5881C45.2415 48.7955 45.5355 49.0753 45.7287 49.4276C45.9219 49.777 46.0185 50.1648 46.0185 50.5909C46.0185 50.9659 45.9517 51.2756 45.8182 51.5199C45.6875 51.7642 45.5142 51.9574 45.2983 52.0994C45.0852 52.2415 44.8537 52.3466 44.6037 52.4148V52.5C44.8707 52.517 45.1392 52.6108 45.4091 52.7812C45.679 52.9517 45.9048 53.196 46.0866 53.5142C46.2685 53.8324 46.3594 54.2216 46.3594 54.6818C46.3594 55.1193 46.2599 55.5128 46.0611 55.8622C45.8622 56.2116 45.5483 56.4886 45.1193 56.6932C44.6903 56.8977 44.1321 57 43.4446 57H40.2912ZM41.348 56.0625H43.4446C44.1349 56.0625 44.625 55.929 44.9148 55.6619C45.2074 55.392 45.3537 55.0653 45.3537 54.6818C45.3537 54.3864 45.2784 54.1136 45.1278 53.8636C44.9773 53.6108 44.7628 53.4091 44.4844 53.2585C44.206 53.1051 43.8764 53.0284 43.4957 53.0284H41.348V56.0625ZM41.348 52.108H43.3082C43.6264 52.108 43.9134 52.0455 44.169 51.9205C44.4276 51.7955 44.6321 51.6193 44.7827 51.392C44.9361 51.1648 45.0128 50.8977 45.0128 50.5909C45.0128 50.2074 44.8793 49.8821 44.6122 49.6151C44.3452 49.3452 43.9219 49.2102 43.3423 49.2102H41.348V52.108ZM48.9652 48.2727V57H47.9595V48.2727H48.9652ZM53.4663 57.1364C52.8754 57.1364 52.3569 56.9957 51.9109 56.7145C51.4677 56.4332 51.1211 56.0398 50.8711 55.5341C50.6239 55.0284 50.5004 54.4375 50.5004 53.7614C50.5004 53.0795 50.6239 52.4844 50.8711 51.9759C51.1211 51.4673 51.4677 51.0724 51.9109 50.7912C52.3569 50.5099 52.8754 50.3693 53.4663 50.3693C54.0572 50.3693 54.5742 50.5099 55.0174 50.7912C55.4634 51.0724 55.81 51.4673 56.0572 51.9759C56.3072 52.4844 56.4322 53.0795 56.4322 53.7614C56.4322 54.4375 56.3072 55.0284 56.0572 55.5341C55.81 56.0398 55.4634 56.4332 55.0174 56.7145C54.5742 56.9957 54.0572 57.1364 53.4663 57.1364ZM53.4663 56.233C53.9151 56.233 54.2844 56.1179 54.5742 55.8878C54.864 55.6577 55.0785 55.3551 55.2177 54.9801C55.3569 54.6051 55.4265 54.1989 55.4265 53.7614C55.4265 53.3239 55.3569 52.9162 55.2177 52.5384C55.0785 52.1605 54.864 51.8551 54.5742 51.6222C54.2844 51.3892 53.9151 51.2727 53.4663 51.2727C53.0174 51.2727 52.6481 51.3892 52.3583 51.6222C52.0685 51.8551 51.854 52.1605 51.7148 52.5384C51.5756 52.9162 51.506 53.3239 51.506 53.7614C51.506 54.1989 51.5756 54.6051 51.7148 54.9801C51.854 55.3551 52.0685 55.6577 52.3583 55.8878C52.6481 56.1179 53.0174 56.233 53.4663 56.233ZM60.6264 57.1364C60.0355 57.1364 59.517 56.9957 59.071 56.7145C58.6278 56.4332 58.2812 56.0398 58.0312 55.5341C57.7841 55.0284 57.6605 54.4375 57.6605 53.7614C57.6605 53.0795 57.7841 52.4844 58.0312 51.9759C58.2812 51.4673 58.6278 51.0724 59.071 50.7912C59.517 50.5099 60.0355 50.3693 60.6264 50.3693C61.2173 50.3693 61.7344 50.5099 62.1776 50.7912C62.6236 51.0724 62.9702 51.4673 63.2173 51.9759C63.4673 52.4844 63.5923 53.0795 63.5923 53.7614C63.5923 54.4375 63.4673 55.0284 63.2173 55.5341C62.9702 56.0398 62.6236 56.4332 62.1776 56.7145C61.7344 56.9957 61.2173 57.1364 60.6264 57.1364ZM60.6264 56.233C61.0753 56.233 61.4446 56.1179 61.7344 55.8878C62.0241 55.6577 62.2386 55.3551 62.3778 54.9801C62.517 54.6051 62.5866 54.1989 62.5866 53.7614C62.5866 53.3239 62.517 52.9162 62.3778 52.5384C62.2386 52.1605 62.0241 51.8551 61.7344 51.6222C61.4446 51.3892 61.0753 51.2727 60.6264 51.2727C60.1776 51.2727 59.8082 51.3892 59.5185 51.6222C59.2287 51.8551 59.0142 52.1605 58.875 52.5384C58.7358 52.9162 58.6662 53.3239 58.6662 53.7614C58.6662 54.1989 58.7358 54.6051 58.875 54.9801C59.0142 55.3551 59.2287 55.6577 59.5185 55.8878C59.8082 56.1179 60.1776 56.233 60.6264 56.233ZM67.5991 57.1364C67.0536 57.1364 66.5721 56.9986 66.1545 56.723C65.7369 56.4446 65.4102 56.0526 65.1744 55.5469C64.9386 55.0384 64.8207 54.4375 64.8207 53.7443C64.8207 53.0568 64.9386 52.4602 65.1744 51.9545C65.4102 51.4489 65.7383 51.0582 66.1587 50.7827C66.5792 50.5071 67.065 50.3693 67.6161 50.3693C68.0423 50.3693 68.3789 50.4403 68.6261 50.5824C68.8761 50.7216 69.0664 50.8807 69.1971 51.0597C69.3306 51.2358 69.4343 51.3807 69.5082 51.4943H69.5934V48.2727H70.5991V57H69.6275V55.9943H69.5082C69.4343 56.1136 69.3292 56.2642 69.1928 56.446C69.0565 56.625 68.8619 56.7855 68.609 56.9276C68.3562 57.0668 68.0195 57.1364 67.5991 57.1364ZM67.7354 56.233C68.1388 56.233 68.4798 56.1278 68.7582 55.9176C69.0366 55.7045 69.2482 55.4105 69.3931 55.0355C69.538 54.6577 69.6104 54.2216 69.6104 53.7273C69.6104 53.2386 69.5394 52.8111 69.3974 52.4446C69.2553 52.0753 69.0451 51.7884 68.7667 51.5838C68.4883 51.3764 68.1445 51.2727 67.7354 51.2727C67.3093 51.2727 66.9542 51.3821 66.6701 51.6009C66.3888 51.8168 66.1772 52.1108 66.0352 52.483C65.896 52.8523 65.8263 53.267 65.8263 53.7273C65.8263 54.1932 65.8974 54.6165 66.0394 54.9972C66.1843 55.375 66.3974 55.6761 66.6786 55.9006C66.9627 56.1222 67.315 56.233 67.7354 56.233ZM76.092 57V48.2727H79.1431C79.7511 48.2727 80.2525 48.3778 80.6474 48.5881C81.0423 48.7955 81.3363 49.0753 81.5295 49.4276C81.7227 49.777 81.8192 50.1648 81.8192 50.5909C81.8192 50.9659 81.7525 51.2756 81.619 51.5199C81.4883 51.7642 81.315 51.9574 81.0991 52.0994C80.886 52.2415 80.6545 52.3466 80.4045 52.4148V52.5C80.6715 52.517 80.94 52.6108 81.2099 52.7812C81.4798 52.9517 81.7056 53.196 81.8874 53.5142C82.0692 53.8324 82.1602 54.2216 82.1602 54.6818C82.1602 55.1193 82.0607 55.5128 81.8619 55.8622C81.663 56.2116 81.3491 56.4886 80.9201 56.6932C80.4911 56.8977 79.9329 57 79.2454 57H76.092ZM77.1488 56.0625H79.2454C79.9357 56.0625 80.4258 55.929 80.7156 55.6619C81.0082 55.392 81.1545 55.0653 81.1545 54.6818C81.1545 54.3864 81.0792 54.1136 80.9286 53.8636C80.7781 53.6108 80.5636 53.4091 80.2852 53.2585C80.0067 53.1051 79.6772 53.0284 79.2965 53.0284H77.1488V56.0625ZM77.1488 52.108H79.109C79.4272 52.108 79.7141 52.0455 79.9698 51.9205C80.2283 51.7955 80.4329 51.6193 80.5835 51.392C80.7369 51.1648 80.8136 50.8977 80.8136 50.5909C80.8136 50.2074 80.68 49.8821 80.413 49.6151C80.146 49.3452 79.7227 49.2102 79.1431 49.2102H77.1488V52.108ZM85.6864 57.1534C85.2717 57.1534 84.8952 57.0753 84.5572 56.919C84.2191 56.7599 83.9506 56.5312 83.7518 56.233C83.5529 55.9318 83.4535 55.5682 83.4535 55.142C83.4535 54.767 83.5273 54.4631 83.6751 54.2301C83.8228 53.9943 84.0202 53.8097 84.2674 53.6761C84.5146 53.5426 84.7873 53.4432 85.0856 53.3778C85.3867 53.3097 85.6893 53.2557 85.9933 53.2159C86.391 53.1648 86.7134 53.1264 86.9606 53.1009C87.2106 53.0724 87.3924 53.0256 87.506 52.9602C87.6225 52.8949 87.6808 52.7812 87.6808 52.6193V52.5852C87.6808 52.1648 87.5657 51.8381 87.3356 51.6051C87.1083 51.3722 86.7631 51.2557 86.3001 51.2557C85.82 51.2557 85.4435 51.3608 85.1708 51.571C84.8981 51.7812 84.7063 52.0057 84.5955 52.2443L83.641 51.9034C83.8114 51.5057 84.0387 51.196 84.3228 50.9744C84.6097 50.75 84.9222 50.5937 85.2603 50.5057C85.6012 50.4148 85.9364 50.3693 86.266 50.3693C86.4762 50.3693 86.7177 50.3949 86.9904 50.446C87.266 50.4943 87.5316 50.5952 87.7873 50.7486C88.0458 50.902 88.2603 51.1335 88.4308 51.4432C88.6012 51.7528 88.6864 52.1676 88.6864 52.6875V57H87.6808V56.1136H87.6296C87.5614 56.2557 87.4478 56.4077 87.2887 56.5696C87.1296 56.7315 86.918 56.8693 86.6538 56.983C86.3896 57.0966 86.0671 57.1534 85.6864 57.1534ZM85.8398 56.25C86.2376 56.25 86.5728 56.1719 86.8455 56.0156C87.1211 55.8594 87.3285 55.6577 87.4677 55.4105C87.6097 55.1634 87.6808 54.9034 87.6808 54.6307V53.7102C87.6381 53.7614 87.5444 53.8082 87.3995 53.8509C87.2575 53.8906 87.0927 53.9261 86.9052 53.9574C86.7205 53.9858 86.5401 54.0114 86.364 54.0341C86.1907 54.054 86.0501 54.071 85.9421 54.0852C85.6808 54.1193 85.4364 54.1747 85.2092 54.2514C84.9847 54.3253 84.8029 54.4375 84.6637 54.5881C84.5273 54.7358 84.4592 54.9375 84.4592 55.1932C84.4592 55.5426 84.5884 55.8068 84.8469 55.9858C85.1083 56.1619 85.4393 56.25 85.8398 56.25ZM91.5277 53.0625V57H90.522V50.4545H91.4936V51.4773H91.5788C91.7322 51.1449 91.9652 50.8778 92.2777 50.6761C92.5902 50.4716 92.9936 50.3693 93.4879 50.3693C93.9311 50.3693 94.3189 50.4602 94.6513 50.642C94.9837 50.821 95.2422 51.0938 95.4268 51.4602C95.6115 51.8239 95.7038 52.2841 95.7038 52.8409V57H94.6982V52.9091C94.6982 52.3949 94.5646 51.9943 94.2976 51.7074C94.0305 51.4176 93.6641 51.2727 93.1982 51.2727C92.8771 51.2727 92.5902 51.3423 92.3374 51.4815C92.0874 51.6207 91.8899 51.8239 91.745 52.0909C91.6001 52.358 91.5277 52.6818 91.5277 53.0625ZM98.479 54.6136L98.462 53.3693H98.6665L101.53 50.4545H102.775L99.7234 53.5398H99.6381L98.479 54.6136ZM97.5415 57V48.2727H98.5472V57H97.5415ZM101.701 57L99.1438 53.7614L99.8597 53.0625L102.979 57H101.701Z" fill="white"/>
</svg>
